<svg id="Layer_1" data-name="Layer 1" xmlns="http://www.w3.org/2000/svg" viewBox="0 0 324.908 56.253">
  <defs>
    <style>
      .cls-1, .cls-4 {
        fill: #fff;
      }

      .cls-2, .cls-3 {
        fill: #58c1ae;
      }

      .cls-2, .cls-4 {
        fill-rule: evenodd;
      }
    </style>
  </defs>
  <title>742f985d-63ed-44c0-bc40-d03ae1979683</title>
  <g id="_Group_" data-name="&lt;Group&gt;">
    <g id="_Group_2" data-name="&lt;Group&gt;">
      <g id="_Group_3" data-name="&lt;Group&gt;">
        <path id="_Compound_Path_" data-name="&lt;Compound Path&gt;" class="cls-1" d="M93.884,2.137H98.53l45.757,23.1h.086V3.013h6.444v33.71h-4.646l-45.757-23.1h-.087V36.066H93.884Z"/>
        <path id="_Compound_Path_2" data-name="&lt;Compound Path&gt;" class="cls-1" d="M150.817,38.708h-4.646a1.975,1.975,0,0,1-.893-.214L103.36,16.8V36.066a1.984,1.984,0,0,1-1.982,1.984H93.884A1.985,1.985,0,0,1,91.9,36.066V2.137A1.986,1.986,0,0,1,93.884.152H98.53a1.977,1.977,0,0,1,.894.214l41.918,21.691V3.013a1.983,1.983,0,0,1,1.983-1.984h7.492A1.985,1.985,0,0,1,152.8,3.013v33.71A1.985,1.985,0,0,1,150.817,38.708Zm-4.173-3.968h2.19V5h-2.476v20.24a1.985,1.985,0,0,1-1.985,1.984,2.363,2.363,0,0,1-.981-.213L98.058,4.12H95.868V34.081h2.476V13.622a1.985,1.985,0,0,1,1.984-1.984,2.356,2.356,0,0,1,.982.213Z"/>
      </g>
    </g>
    <g id="_Group_4" data-name="&lt;Group&gt;">
      <g id="_Group_5" data-name="&lt;Group&gt;">
        <polygon id="_Path_" data-name="&lt;Path&gt;" class="cls-2" points="19.863 37.02 1.026 37.02 31.298 1.026 50.137 1.026 19.863 37.02"/>
        <path id="_Compound_Path_3" data-name="&lt;Compound Path&gt;" class="cls-3" d="M19.863,38.046H1.026A1.026,1.026,0,0,1,.241,36.36L30.515.366A1.021,1.021,0,0,1,31.3,0H50.137a1.025,1.025,0,0,1,.783,1.686L20.648,37.68A1.029,1.029,0,0,1,19.863,38.046ZM3.228,35.994H19.385L47.935,2.05H31.776Z"/>
      </g>
      <g id="_Group_6" data-name="&lt;Group&gt;">
        <polygon id="_Path_2" data-name="&lt;Path&gt;" class="cls-2" points="40.526 37.02 28.274 37.02 58.548 1.026 70.8 1.026 40.526 37.02"/>
        <path id="_Compound_Path_4" data-name="&lt;Compound Path&gt;" class="cls-3" d="M40.526,38.046H28.274a1.025,1.025,0,0,1-.783-1.686L57.764.366A1.027,1.027,0,0,1,58.548,0H70.8a1.025,1.025,0,0,1,.783,1.686L41.311,37.68A1.031,1.031,0,0,1,40.526,38.046ZM30.477,35.994h9.571L68.6,2.05H59.026Z"/>
      </g>
      <g id="_Group_7" data-name="&lt;Group&gt;">
        <polygon id="_Path_3" data-name="&lt;Path&gt;" class="cls-2" points="56.826 37.02 48.966 37.02 79.239 1.026 87.098 1.026 56.826 37.02"/>
        <path id="_Compound_Path_5" data-name="&lt;Compound Path&gt;" class="cls-3" d="M56.826,38.046h-7.86a1.025,1.025,0,0,1-.784-1.686L78.455.366A1.028,1.028,0,0,1,79.239,0H87.1a1.025,1.025,0,0,1,.784,1.686L57.61,37.68A1.027,1.027,0,0,1,56.826,38.046Zm-5.657-2.052h5.178L84.9,2.05H79.717Z"/>
      </g>
    </g>
    <path id="_Path_4" data-name="&lt;Path&gt;" class="cls-4" d="M286.048,1.285q18.009,0,36.016,0c2.272,0,2.757.489,2.766,2.759.006,1.52.008,3.041,0,4.561a1.915,1.915,0,0,1-2.1,2.173c-.524.005-1.049.008-1.573.008H264.372c-3.073,0-3.385.316-3.385,3.422q0,6.133,0,12.268c0,2.15.451,2.638,2.538,2.638q22.569.013,45.138,0c2.064,0,2.433-.444,2.433-2.719,0-2.174-.5-2.766-2.431-2.77-7.077-.014-14.154,0-21.231-.007-2.084,0-2.6-.515-2.66-2.572-.128-4.663-.109-4.682,4.61-4.682q16.039,0,32.082,0c3.105,0,3.363.264,3.363,3.439q0,8.1,0,16.2c0,2.14-.566,2.7-2.687,2.7q-36.1,0-72.188,0c-2.1,0-2.691-.586-2.692-2.716q-.012-16.041,0-32.083c0-2.05.577-2.617,2.613-2.617Q267.961,1.278,286.048,1.285Z"/>
    <path id="_Path_5" data-name="&lt;Path&gt;" class="cls-4" d="M242.113,20.008q0,7.939,0,15.881c0,2.334-.5,2.815-2.876,2.818-2.727,0-5.451.006-8.177,0-2.086,0-2.674-.594-2.675-2.73-.006-5.765.009-11.531.006-17.3,0-2.218-.345-2.421-2.219-1.324-5.781,3.386-11.51,6.864-17.364,10.119a11.243,11.243,0,0,1-5.171,1.422c-9.9.043-6.566.889-15.148-4.066-4.3-2.486-8.576-5.035-12.869-7.542-1.7-.989-2.086-.765-2.088,1.2-.011,5.817,0,11.635-.013,17.453,0,2.221-.555,2.761-2.788,2.765-2.831,0-5.661.012-8.491,0-1.793-.008-2.446-.646-2.448-2.475q-.02-16.195,0-32.39c0-1.949.6-2.541,2.518-2.55,2.935-.014,5.88-.154,8.8.058a10.238,10.238,0,0,1,4.546,1.36q11.38,7.126,22.578,14.542a4.352,4.352,0,0,0,5.445.034c7.428-4.9,14.941-9.673,22.4-14.526A8.575,8.575,0,0,1,231.1,1.268c2.882.064,5.765,0,8.647.023,1.75.013,2.357.612,2.361,2.365C242.124,9.107,242.113,14.557,242.113,20.008Z"/>
    <g id="_Group_8" data-name="&lt;Group&gt;">
      <path id="_Compound_Path_6" data-name="&lt;Compound Path&gt;" class="cls-1" d="M232.886,43.584l2.993,12.47H233.25l-.463-2.1h-2.5l-.446,2.1H227.4l2.894-12.47Zm-1.092,5.094-.28-1.886h-.034l-.264,1.886L230.686,52h1.736Z"/>
      <path id="_Compound_Path_7" data-name="&lt;Compound Path&gt;" class="cls-1" d="M240.1,43.584v8.071c0,.942-.117,2.365,1.223,2.365,1.207,0,1.207-.91,1.224-1.836v-8.6h2.465v9.1c0,1.323-.149,3.572-3.705,3.572-2.3,0-3.671-1.074-3.671-3.407V43.584Z"/>
      <path id="_Compound_Path_8" data-name="&lt;Compound Path&gt;" class="cls-1" d="M253.248,43.584V45.9H251.3V56.055h-2.464V45.9H246.9V43.584Z"/>
      <path id="_Compound_Path_9" data-name="&lt;Compound Path&gt;" class="cls-1" d="M263.521,49.82c0,4.68-2.183,6.433-4.382,6.433s-4.383-1.753-4.383-6.433,2.183-6.434,4.383-6.434S263.521,45.139,263.521,49.82Zm-4.382,4.151c1.637,0,1.753-3.159,1.753-4.151,0-1.108-.116-4.151-1.753-4.151s-1.753,3.043-1.753,4.151C257.386,50.812,257.5,53.971,259.139,53.971Z"/>
      <path id="_Compound_Path_10" data-name="&lt;Compound Path&gt;" class="cls-1" d="M274.638,56.055h-1.39V43.584h1.8c2.365,0,4.564.629,4.564,3.44a3.259,3.259,0,0,1-3.126,3.44l3.97,5.59h-1.7l-3.771-5.475h-.347Zm0-6.7h.429c1.572,0,3.16-.3,3.16-2.233,0-2.051-1.506-2.249-3.175-2.249h-.414Z"/>
      <path id="_Compound_Path_11" data-name="&lt;Compound Path&gt;" class="cls-1" d="M283.041,43.584h6.467v1.29H284.43v3.7h4.929v1.29H284.43v4.9h5.078v1.29h-6.467Z"/>
      <path id="_Compound_Path_12" data-name="&lt;Compound Path&gt;" class="cls-1" d="M294.091,56.055H292.7V43.584h2.052a5.259,5.259,0,0,1,3.092.662,3.435,3.435,0,0,1,1.406,2.845,3.5,3.5,0,0,1-1.191,2.679,4.5,4.5,0,0,1-2.961.827h-1.008Zm0-6.748h.926c1.538,0,2.844-.463,2.844-2.249,0-2.034-1.637-2.183-3.258-2.183h-.512Z"/>
      <path id="_Compound_Path_13" data-name="&lt;Compound Path&gt;" class="cls-1" d="M302.395,52.516l-1.5,3.539h-1.521l5.755-13.065,5.606,13.065h-1.538l-1.472-3.539Zm2.7-6.285-2.134,4.995h4.217Z"/>
      <path id="_Compound_Path_14" data-name="&lt;Compound Path&gt;" class="cls-1" d="M314.338,56.055h-1.389V43.584h1.389Z"/>
      <path id="_Compound_Path_15" data-name="&lt;Compound Path&gt;" class="cls-1" d="M319.086,56.055H317.7V43.584h1.8c2.365,0,4.564.629,4.564,3.44a3.259,3.259,0,0,1-3.126,3.44l3.97,5.59h-1.7l-3.771-5.475h-.346Zm0-6.7h.429c1.571,0,3.16-.3,3.16-2.233,0-2.051-1.506-2.249-3.175-2.249h-.414Z"/>
    </g>
  </g>
</svg>
